<mxfile host="app.diagrams.net" modified="2024-01-23T04:17:55.975Z" agent="Mozilla/5.0 (Windows NT 10.0; Win64; x64) AppleWebKit/537.36 (KHTML, like Gecko) Chrome/120.0.0.0 Safari/537.36" etag="uiH5UzRCQ9-AmawBjv-M" version="22.1.21" type="device">
  <diagram name="페이지-1" id="nJjQuzxzFOZdTHx67VrJ">
    <mxGraphModel dx="3659" dy="1121" grid="0" gridSize="10" guides="1" tooltips="1" connect="1" arrows="1" fold="1" page="0" pageScale="1" pageWidth="1169" pageHeight="827" background="#FFFFFF" math="0" shadow="0">
      <root>
        <mxCell id="0" />
        <mxCell id="1" parent="0" />
        <mxCell id="q1l0Mfk32L4LQjD-C9zq-31" value="" style="edgeStyle=orthogonalEdgeStyle;rounded=0;orthogonalLoop=1;jettySize=auto;html=1;verticalAlign=top;" parent="1" edge="1">
          <mxGeometry relative="1" as="geometry">
            <mxPoint x="1940" y="250" as="sourcePoint" />
          </mxGeometry>
        </mxCell>
        <mxCell id="7Ne4PcIB_8j4skOOkWno-11" value="" style="edgeStyle=orthogonalEdgeStyle;rounded=0;orthogonalLoop=1;jettySize=auto;html=1;fontStyle=0;fontSize=14;" parent="1" source="7Ne4PcIB_8j4skOOkWno-4" target="7Ne4PcIB_8j4skOOkWno-10" edge="1">
          <mxGeometry relative="1" as="geometry" />
        </mxCell>
        <mxCell id="7Ne4PcIB_8j4skOOkWno-23" style="edgeStyle=orthogonalEdgeStyle;rounded=0;orthogonalLoop=1;jettySize=auto;html=1;exitX=1;exitY=0.5;exitDx=0;exitDy=0;entryX=0;entryY=0.5;entryDx=0;entryDy=0;fontStyle=0;fontSize=14;" parent="1" source="7Ne4PcIB_8j4skOOkWno-4" target="7Ne4PcIB_8j4skOOkWno-8" edge="1">
          <mxGeometry relative="1" as="geometry" />
        </mxCell>
        <mxCell id="7Ne4PcIB_8j4skOOkWno-24" style="edgeStyle=orthogonalEdgeStyle;rounded=0;orthogonalLoop=1;jettySize=auto;html=1;exitX=1;exitY=0.5;exitDx=0;exitDy=0;entryX=0;entryY=0.5;entryDx=0;entryDy=0;fontStyle=0;fontSize=14;" parent="1" source="7Ne4PcIB_8j4skOOkWno-4" target="7Ne4PcIB_8j4skOOkWno-9" edge="1">
          <mxGeometry relative="1" as="geometry" />
        </mxCell>
        <mxCell id="Dd6US0-BeGoed67bK4tI-3" style="edgeStyle=orthogonalEdgeStyle;rounded=0;orthogonalLoop=1;jettySize=auto;html=1;entryX=0;entryY=0.5;entryDx=0;entryDy=0;" edge="1" parent="1" source="7Ne4PcIB_8j4skOOkWno-4" target="7Ne4PcIB_8j4skOOkWno-15">
          <mxGeometry relative="1" as="geometry" />
        </mxCell>
        <mxCell id="Dd6US0-BeGoed67bK4tI-15" value="" style="edgeStyle=orthogonalEdgeStyle;rounded=0;orthogonalLoop=1;jettySize=auto;html=1;" edge="1" parent="1" source="7Ne4PcIB_8j4skOOkWno-4" target="Dd6US0-BeGoed67bK4tI-14">
          <mxGeometry relative="1" as="geometry" />
        </mxCell>
        <mxCell id="7Ne4PcIB_8j4skOOkWno-4" value="App.js" style="ellipse;whiteSpace=wrap;html=1;strokeWidth=7;strokeColor=#62eaf3;fontSize=14;fontStyle=0;fontFamily=Lucida Console;" parent="1" vertex="1">
          <mxGeometry x="-863" y="502" width="120" height="80" as="geometry" />
        </mxCell>
        <mxCell id="7Ne4PcIB_8j4skOOkWno-8" value="Header" style="ellipse;whiteSpace=wrap;html=1;strokeWidth=7;strokeColor=#dc4eef;fontSize=14;fontStyle=0;fontFamily=Lucida Console;" parent="1" vertex="1">
          <mxGeometry x="-681" y="378" width="120" height="80" as="geometry" />
        </mxCell>
        <mxCell id="7Ne4PcIB_8j4skOOkWno-9" value="Footer" style="ellipse;whiteSpace=wrap;html=1;strokeWidth=7;strokeColor=#dc4eef;fontSize=14;fontStyle=0;fontFamily=Lucida Console;" parent="1" vertex="1">
          <mxGeometry x="-681" y="624" width="120" height="80" as="geometry" />
        </mxCell>
        <mxCell id="Dd6US0-BeGoed67bK4tI-11" style="edgeStyle=orthogonalEdgeStyle;rounded=0;orthogonalLoop=1;jettySize=auto;html=1;exitX=1;exitY=0.5;exitDx=0;exitDy=0;entryX=0;entryY=0.5;entryDx=0;entryDy=0;" edge="1" parent="1" source="7Ne4PcIB_8j4skOOkWno-10" target="FywolilYDu0weeQNcM6k-11">
          <mxGeometry relative="1" as="geometry" />
        </mxCell>
        <mxCell id="Dd6US0-BeGoed67bK4tI-12" style="edgeStyle=orthogonalEdgeStyle;rounded=0;orthogonalLoop=1;jettySize=auto;html=1;exitX=1;exitY=0.5;exitDx=0;exitDy=0;entryX=0;entryY=0.5;entryDx=0;entryDy=0;" edge="1" parent="1" source="7Ne4PcIB_8j4skOOkWno-10" target="FywolilYDu0weeQNcM6k-2">
          <mxGeometry relative="1" as="geometry" />
        </mxCell>
        <mxCell id="Dd6US0-BeGoed67bK4tI-13" style="edgeStyle=orthogonalEdgeStyle;rounded=0;orthogonalLoop=1;jettySize=auto;html=1;exitX=1;exitY=0.5;exitDx=0;exitDy=0;entryX=0;entryY=0.5;entryDx=0;entryDy=0;" edge="1" parent="1" source="7Ne4PcIB_8j4skOOkWno-10" target="7Ne4PcIB_8j4skOOkWno-18">
          <mxGeometry relative="1" as="geometry" />
        </mxCell>
        <mxCell id="7Ne4PcIB_8j4skOOkWno-10" value="Main: Main" style="ellipse;whiteSpace=wrap;html=1;strokeWidth=7;strokeColor=#dc4eef;fontSize=14;fontStyle=0;fontFamily=Lucida Console;" parent="1" vertex="1">
          <mxGeometry x="-681" y="501" width="120" height="80" as="geometry" />
        </mxCell>
        <mxCell id="Dd6US0-BeGoed67bK4tI-5" value="" style="edgeStyle=orthogonalEdgeStyle;rounded=0;orthogonalLoop=1;jettySize=auto;html=1;" edge="1" parent="1" source="7Ne4PcIB_8j4skOOkWno-15" target="Dd6US0-BeGoed67bK4tI-4">
          <mxGeometry relative="1" as="geometry" />
        </mxCell>
        <mxCell id="7Ne4PcIB_8j4skOOkWno-15" value="Join" style="ellipse;whiteSpace=wrap;html=1;strokeWidth=7;strokeColor=#ffb22e;fontSize=14;fontStyle=0;fontFamily=Lucida Console;" parent="1" vertex="1">
          <mxGeometry x="-681" y="231" width="120" height="80" as="geometry" />
        </mxCell>
        <mxCell id="Dd6US0-BeGoed67bK4tI-22" value="" style="edgeStyle=orthogonalEdgeStyle;rounded=0;orthogonalLoop=1;jettySize=auto;html=1;" edge="1" parent="1" source="7Ne4PcIB_8j4skOOkWno-18" target="Dd6US0-BeGoed67bK4tI-20">
          <mxGeometry relative="1" as="geometry" />
        </mxCell>
        <mxCell id="7Ne4PcIB_8j4skOOkWno-18" value="Faq" style="ellipse;whiteSpace=wrap;html=1;strokeWidth=7;strokeColor=#ec5151;fontSize=14;fontStyle=0;fontFamily=Lucida Console;" parent="1" vertex="1">
          <mxGeometry x="-470" y="603.25" width="120" height="80" as="geometry" />
        </mxCell>
        <mxCell id="Dd6US0-BeGoed67bK4tI-21" value="" style="edgeStyle=orthogonalEdgeStyle;rounded=0;orthogonalLoop=1;jettySize=auto;html=1;" edge="1" parent="1" source="FywolilYDu0weeQNcM6k-2" target="Dd6US0-BeGoed67bK4tI-19">
          <mxGeometry relative="1" as="geometry" />
        </mxCell>
        <mxCell id="FywolilYDu0weeQNcM6k-2" value="Event" style="ellipse;whiteSpace=wrap;html=1;strokeWidth=7;strokeColor=#ec5151;fontSize=14;fontStyle=0;fontFamily=Lucida Console;" parent="1" vertex="1">
          <mxGeometry x="-470" y="501" width="120" height="80" as="geometry" />
        </mxCell>
        <mxCell id="Dd6US0-BeGoed67bK4tI-9" value="" style="edgeStyle=orthogonalEdgeStyle;rounded=0;orthogonalLoop=1;jettySize=auto;html=1;" edge="1" parent="1" source="FywolilYDu0weeQNcM6k-11" target="Dd6US0-BeGoed67bK4tI-8">
          <mxGeometry relative="1" as="geometry" />
        </mxCell>
        <mxCell id="FywolilYDu0weeQNcM6k-11" value="Booklist" style="ellipse;whiteSpace=wrap;html=1;strokeWidth=7;strokeColor=#ec5151;fontSize=14;fontStyle=0;fontFamily=Lucida Console;" parent="1" vertex="1">
          <mxGeometry x="-470" y="398.75" width="120" height="80" as="geometry" />
        </mxCell>
        <mxCell id="FywolilYDu0weeQNcM6k-13" value="Cart" style="ellipse;whiteSpace=wrap;html=1;strokeWidth=7;strokeColor=#41abfb;fontSize=14;fontStyle=0;fontFamily=Lucida Console;" parent="1" vertex="1">
          <mxGeometry x="-150" y="398.75" width="120" height="80" as="geometry" />
        </mxCell>
        <mxCell id="Dd6US0-BeGoed67bK4tI-7" value="" style="edgeStyle=orthogonalEdgeStyle;rounded=0;orthogonalLoop=1;jettySize=auto;html=1;" edge="1" parent="1" source="Dd6US0-BeGoed67bK4tI-4" target="Dd6US0-BeGoed67bK4tI-6">
          <mxGeometry relative="1" as="geometry" />
        </mxCell>
        <mxCell id="Dd6US0-BeGoed67bK4tI-4" value="Login" style="ellipse;whiteSpace=wrap;html=1;strokeWidth=7;strokeColor=#ffb22e;fontSize=14;fontStyle=0;fontFamily=Lucida Console;" vertex="1" parent="1">
          <mxGeometry x="-520" y="231" width="120" height="80" as="geometry" />
        </mxCell>
        <mxCell id="Dd6US0-BeGoed67bK4tI-6" value="Mypage" style="ellipse;whiteSpace=wrap;html=1;strokeWidth=7;strokeColor=#ffb22e;fontSize=14;fontStyle=0;fontFamily=Lucida Console;" vertex="1" parent="1">
          <mxGeometry x="-359" y="231" width="120" height="80" as="geometry" />
        </mxCell>
        <mxCell id="Dd6US0-BeGoed67bK4tI-10" value="" style="edgeStyle=orthogonalEdgeStyle;rounded=0;orthogonalLoop=1;jettySize=auto;html=1;" edge="1" parent="1" source="Dd6US0-BeGoed67bK4tI-8" target="FywolilYDu0weeQNcM6k-13">
          <mxGeometry relative="1" as="geometry" />
        </mxCell>
        <mxCell id="Dd6US0-BeGoed67bK4tI-8" value="Bookdetail" style="ellipse;whiteSpace=wrap;html=1;strokeWidth=7;strokeColor=#41abfb;fontSize=14;fontStyle=0;fontFamily=Lucida Console;" vertex="1" parent="1">
          <mxGeometry x="-310" y="398.75" width="120" height="80" as="geometry" />
        </mxCell>
        <mxCell id="Dd6US0-BeGoed67bK4tI-17" value="" style="edgeStyle=orthogonalEdgeStyle;rounded=0;orthogonalLoop=1;jettySize=auto;html=1;" edge="1" parent="1" source="Dd6US0-BeGoed67bK4tI-14" target="Dd6US0-BeGoed67bK4tI-16">
          <mxGeometry relative="1" as="geometry" />
        </mxCell>
        <mxCell id="Dd6US0-BeGoed67bK4tI-14" value="Login" style="ellipse;whiteSpace=wrap;html=1;strokeWidth=7;strokeColor=#ffb22e;fontSize=14;fontStyle=0;fontFamily=Lucida Console;" vertex="1" parent="1">
          <mxGeometry x="-1033" y="502" width="120" height="80" as="geometry" />
        </mxCell>
        <mxCell id="Dd6US0-BeGoed67bK4tI-44" style="edgeStyle=orthogonalEdgeStyle;rounded=0;orthogonalLoop=1;jettySize=auto;html=1;exitX=0;exitY=0.5;exitDx=0;exitDy=0;entryX=1;entryY=0.5;entryDx=0;entryDy=0;" edge="1" parent="1" source="Dd6US0-BeGoed67bK4tI-16" target="Dd6US0-BeGoed67bK4tI-26">
          <mxGeometry relative="1" as="geometry" />
        </mxCell>
        <mxCell id="Dd6US0-BeGoed67bK4tI-45" style="edgeStyle=orthogonalEdgeStyle;rounded=0;orthogonalLoop=1;jettySize=auto;html=1;exitX=0;exitY=0.5;exitDx=0;exitDy=0;entryX=1;entryY=0.5;entryDx=0;entryDy=0;" edge="1" parent="1" source="Dd6US0-BeGoed67bK4tI-16" target="Dd6US0-BeGoed67bK4tI-25">
          <mxGeometry relative="1" as="geometry" />
        </mxCell>
        <mxCell id="Dd6US0-BeGoed67bK4tI-46" style="edgeStyle=orthogonalEdgeStyle;rounded=0;orthogonalLoop=1;jettySize=auto;html=1;exitX=0;exitY=0.5;exitDx=0;exitDy=0;entryX=1;entryY=0.5;entryDx=0;entryDy=0;" edge="1" parent="1" source="Dd6US0-BeGoed67bK4tI-16" target="Dd6US0-BeGoed67bK4tI-24">
          <mxGeometry relative="1" as="geometry" />
        </mxCell>
        <mxCell id="Dd6US0-BeGoed67bK4tI-47" style="edgeStyle=orthogonalEdgeStyle;rounded=0;orthogonalLoop=1;jettySize=auto;html=1;exitX=0;exitY=0.5;exitDx=0;exitDy=0;entryX=1;entryY=0.5;entryDx=0;entryDy=0;" edge="1" parent="1" source="Dd6US0-BeGoed67bK4tI-16" target="Dd6US0-BeGoed67bK4tI-42">
          <mxGeometry relative="1" as="geometry" />
        </mxCell>
        <mxCell id="Dd6US0-BeGoed67bK4tI-48" style="edgeStyle=orthogonalEdgeStyle;rounded=0;orthogonalLoop=1;jettySize=auto;html=1;exitX=0;exitY=0.5;exitDx=0;exitDy=0;entryX=1;entryY=0.5;entryDx=0;entryDy=0;" edge="1" parent="1" source="Dd6US0-BeGoed67bK4tI-16" target="Dd6US0-BeGoed67bK4tI-41">
          <mxGeometry relative="1" as="geometry" />
        </mxCell>
        <mxCell id="Dd6US0-BeGoed67bK4tI-49" style="edgeStyle=orthogonalEdgeStyle;rounded=0;orthogonalLoop=1;jettySize=auto;html=1;exitX=0;exitY=0.5;exitDx=0;exitDy=0;entryX=1;entryY=0.5;entryDx=0;entryDy=0;" edge="1" parent="1" source="Dd6US0-BeGoed67bK4tI-16" target="Dd6US0-BeGoed67bK4tI-40">
          <mxGeometry relative="1" as="geometry" />
        </mxCell>
        <mxCell id="Dd6US0-BeGoed67bK4tI-16" value="Admin: Main" style="ellipse;whiteSpace=wrap;html=1;strokeWidth=7;strokeColor=#dc4eef;fontSize=14;fontStyle=0;fontFamily=Lucida Console;" vertex="1" parent="1">
          <mxGeometry x="-1203" y="502" width="120" height="80" as="geometry" />
        </mxCell>
        <mxCell id="Dd6US0-BeGoed67bK4tI-19" value="Eventdetail" style="ellipse;whiteSpace=wrap;html=1;strokeWidth=7;strokeColor=#41abfb;fontSize=14;fontStyle=0;fontFamily=Lucida Console;" vertex="1" parent="1">
          <mxGeometry x="-310" y="501" width="120" height="80" as="geometry" />
        </mxCell>
        <mxCell id="Dd6US0-BeGoed67bK4tI-20" value="Faqdetail" style="ellipse;whiteSpace=wrap;html=1;strokeWidth=7;strokeColor=#41abfb;fontSize=14;fontStyle=0;fontFamily=Lucida Console;" vertex="1" parent="1">
          <mxGeometry x="-310" y="603.25" width="120" height="80" as="geometry" />
        </mxCell>
        <mxCell id="Dd6US0-BeGoed67bK4tI-53" style="edgeStyle=orthogonalEdgeStyle;rounded=0;orthogonalLoop=1;jettySize=auto;html=1;exitX=0;exitY=0.5;exitDx=0;exitDy=0;entryX=1;entryY=0.5;entryDx=0;entryDy=0;" edge="1" parent="1" source="Dd6US0-BeGoed67bK4tI-24" target="Dd6US0-BeGoed67bK4tI-36">
          <mxGeometry relative="1" as="geometry" />
        </mxCell>
        <mxCell id="Dd6US0-BeGoed67bK4tI-24" value="Faq" style="ellipse;whiteSpace=wrap;html=1;strokeWidth=7;strokeColor=#ec5151;fontSize=14;fontStyle=0;fontFamily=Lucida Console;" vertex="1" parent="1">
          <mxGeometry x="-1367" y="450.63" width="120" height="80" as="geometry" />
        </mxCell>
        <mxCell id="Dd6US0-BeGoed67bK4tI-52" value="" style="edgeStyle=orthogonalEdgeStyle;rounded=0;orthogonalLoop=1;jettySize=auto;html=1;" edge="1" parent="1" source="Dd6US0-BeGoed67bK4tI-25" target="Dd6US0-BeGoed67bK4tI-39">
          <mxGeometry relative="1" as="geometry" />
        </mxCell>
        <mxCell id="Dd6US0-BeGoed67bK4tI-25" value="Event" style="ellipse;whiteSpace=wrap;html=1;strokeWidth=7;strokeColor=#ec5151;fontSize=14;fontStyle=0;fontFamily=Lucida Console;" vertex="1" parent="1">
          <mxGeometry x="-1367" y="348.38" width="120" height="80" as="geometry" />
        </mxCell>
        <mxCell id="Dd6US0-BeGoed67bK4tI-51" style="edgeStyle=orthogonalEdgeStyle;rounded=0;orthogonalLoop=1;jettySize=auto;html=1;exitX=0;exitY=0.5;exitDx=0;exitDy=0;entryX=1;entryY=0.5;entryDx=0;entryDy=0;" edge="1" parent="1" source="Dd6US0-BeGoed67bK4tI-26" target="Dd6US0-BeGoed67bK4tI-34">
          <mxGeometry relative="1" as="geometry" />
        </mxCell>
        <mxCell id="Dd6US0-BeGoed67bK4tI-26" value="User" style="ellipse;whiteSpace=wrap;html=1;strokeWidth=7;strokeColor=#ec5151;fontSize=14;fontStyle=0;fontFamily=Lucida Console;" vertex="1" parent="1">
          <mxGeometry x="-1367" y="246.13" width="120" height="80" as="geometry" />
        </mxCell>
        <mxCell id="Dd6US0-BeGoed67bK4tI-34" value="User" style="ellipse;whiteSpace=wrap;html=1;strokeWidth=7;strokeColor=#41abfb;fontSize=14;fontStyle=0;fontFamily=Lucida Console;" vertex="1" parent="1">
          <mxGeometry x="-1519" y="246.13" width="120" height="80" as="geometry" />
        </mxCell>
        <mxCell id="Dd6US0-BeGoed67bK4tI-35" value="Rental" style="ellipse;whiteSpace=wrap;html=1;strokeWidth=7;strokeColor=#41abfb;fontSize=14;fontStyle=0;fontFamily=Lucida Console;" vertex="1" parent="1">
          <mxGeometry x="-1519" y="757.88" width="120" height="80" as="geometry" />
        </mxCell>
        <mxCell id="Dd6US0-BeGoed67bK4tI-36" value="Faq" style="ellipse;whiteSpace=wrap;html=1;strokeWidth=7;strokeColor=#41abfb;fontSize=14;fontStyle=0;fontFamily=Lucida Console;" vertex="1" parent="1">
          <mxGeometry x="-1519" y="450.63" width="120" height="80" as="geometry" />
        </mxCell>
        <mxCell id="Dd6US0-BeGoed67bK4tI-37" value="Banner" style="ellipse;whiteSpace=wrap;html=1;strokeWidth=7;strokeColor=#41abfb;fontSize=14;fontStyle=0;fontFamily=Lucida Console;" vertex="1" parent="1">
          <mxGeometry x="-1519" y="553.38" width="120" height="80" as="geometry" />
        </mxCell>
        <mxCell id="Dd6US0-BeGoed67bK4tI-38" value="Book" style="ellipse;whiteSpace=wrap;html=1;strokeWidth=7;strokeColor=#41abfb;fontSize=14;fontStyle=0;fontFamily=Lucida Console;" vertex="1" parent="1">
          <mxGeometry x="-1519" y="655.63" width="120" height="80" as="geometry" />
        </mxCell>
        <mxCell id="Dd6US0-BeGoed67bK4tI-39" value="Event" style="ellipse;whiteSpace=wrap;html=1;strokeWidth=7;strokeColor=#41abfb;fontSize=14;fontStyle=0;fontFamily=Lucida Console;" vertex="1" parent="1">
          <mxGeometry x="-1519" y="348.38" width="120" height="80" as="geometry" />
        </mxCell>
        <mxCell id="Dd6US0-BeGoed67bK4tI-56" style="edgeStyle=orthogonalEdgeStyle;rounded=0;orthogonalLoop=1;jettySize=auto;html=1;exitX=0;exitY=0.5;exitDx=0;exitDy=0;entryX=1;entryY=0.5;entryDx=0;entryDy=0;" edge="1" parent="1" source="Dd6US0-BeGoed67bK4tI-40" target="Dd6US0-BeGoed67bK4tI-35">
          <mxGeometry relative="1" as="geometry" />
        </mxCell>
        <mxCell id="Dd6US0-BeGoed67bK4tI-40" value="Rental" style="ellipse;whiteSpace=wrap;html=1;strokeWidth=7;strokeColor=#ec5151;fontSize=14;fontStyle=0;fontFamily=Lucida Console;" vertex="1" parent="1">
          <mxGeometry x="-1367" y="757.88" width="120" height="80" as="geometry" />
        </mxCell>
        <mxCell id="Dd6US0-BeGoed67bK4tI-55" style="edgeStyle=orthogonalEdgeStyle;rounded=0;orthogonalLoop=1;jettySize=auto;html=1;exitX=0;exitY=0.5;exitDx=0;exitDy=0;entryX=1;entryY=0.5;entryDx=0;entryDy=0;" edge="1" parent="1" source="Dd6US0-BeGoed67bK4tI-41" target="Dd6US0-BeGoed67bK4tI-38">
          <mxGeometry relative="1" as="geometry" />
        </mxCell>
        <mxCell id="Dd6US0-BeGoed67bK4tI-41" value="Book" style="ellipse;whiteSpace=wrap;html=1;strokeWidth=7;strokeColor=#ec5151;fontSize=14;fontStyle=0;fontFamily=Lucida Console;" vertex="1" parent="1">
          <mxGeometry x="-1367" y="655.63" width="120" height="80" as="geometry" />
        </mxCell>
        <mxCell id="Dd6US0-BeGoed67bK4tI-54" style="edgeStyle=orthogonalEdgeStyle;rounded=0;orthogonalLoop=1;jettySize=auto;html=1;exitX=0;exitY=0.5;exitDx=0;exitDy=0;entryX=1;entryY=0.5;entryDx=0;entryDy=0;" edge="1" parent="1" source="Dd6US0-BeGoed67bK4tI-42" target="Dd6US0-BeGoed67bK4tI-37">
          <mxGeometry relative="1" as="geometry" />
        </mxCell>
        <mxCell id="Dd6US0-BeGoed67bK4tI-42" value="Banner" style="ellipse;whiteSpace=wrap;html=1;strokeWidth=7;strokeColor=#ec5151;fontSize=14;fontStyle=0;fontFamily=Lucida Console;" vertex="1" parent="1">
          <mxGeometry x="-1367" y="553.38" width="120" height="80" as="geometry" />
        </mxCell>
      </root>
    </mxGraphModel>
  </diagram>
</mxfile>
